<svg id="Capa_1" enable-background="new 0 0 512 512" height="512" viewBox="0 0 512 512" width="512" xmlns="http://www.w3.org/2000/svg"><g><g><g fill="#ff6f7f"><path d="m321.572 27.037-4.867-10.92c-3.267-7.329-11.857-10.622-19.186-7.355l-73.936 32.958c-4.146 1.847-7.561 5.018-9.711 9.015l-42.924 79.79 36.12 19.431 39.607-73.624 67.542-30.109c7.329-3.267 10.622-11.857 7.355-19.186z"/><path d="m51.119 367.685 8.08 82.829c2.984 30.628 28.731 53.986 59.502 53.986h152.698c30.771 0 56.518-23.358 59.502-53.986l6.634-68.003-30.459-14.656h-75.26l-99.477-39.805z"/><path d="m43.787 292.617-7.423-76.123 158.686-48.613 158.686 48.613-11.679 119.691-34.98 31.671h-75.26z"/></g><path d="m77.891 226.593c0-7.786.34-15.494.978-23.12l-42.505 13.021 7.424 76.124 46.591 18.643c-8.118-27.599-12.488-56.141-12.488-84.668z" fill="#fc5c70"/><path d="m380.947 178.164-8.118-23.237c-7.462-21.358-27.613-35.663-50.237-35.663h-255.083c-22.624 0-42.775 14.305-50.237 35.663l-8.118 23.237c-6.546 18.738 7.362 38.33 27.211 38.33h317.373c19.846 0 33.755-19.592 27.209-38.33z" fill="#dcdcdc"/><path d="m101.556 343.073-50.438 24.612 8.08 82.829c2.984 30.628 28.731 53.986 59.502 53.986h122.837c-62.446-35.15-112.374-94.092-139.981-161.427z" fill="#fc5c70"/><path d="m342.057 336.185-4.522 46.326c-118.584 43.004-169.925-37.754-286.417-14.827l-7.331-75.067c128.541-46.613 164.101 95.052 298.27 43.568z" fill="#dcdcdc"/><path d="m83.562 283.525c-12.281 1.046-25.449 3.897-39.775 9.092l7.331 75.068c22.031-4.336 41.729-4.959 59.995-3.417-12.665-25.678-22.045-52.903-27.551-80.743z" fill="#cececc"/><path d="m99.7 119.264h-32.191c-22.624 0-42.775 14.305-50.237 35.663l-8.118 23.237c-6.546 18.738 7.362 38.33 27.21 38.33h41.732c1.246-34.325 8.809-67.086 21.604-97.23z" fill="#cececc"/></g><g><path d="m109.007 150.271c-4.142 0-7.5 3.358-7.5 7.5v16.534c0 4.142 3.358 7.5 7.5 7.5s7.5-3.358 7.5-7.5v-16.534c0-4.142-3.358-7.5-7.5-7.5z"/><path d="m281.093 150.271c-4.142 0-7.5 3.358-7.5 7.5v16.534c0 4.142 3.358 7.5 7.5 7.5s7.5-3.358 7.5-7.5v-16.534c0-4.142-3.358-7.5-7.5-7.5z"/><path d="m222.662 168.158c-3.122-2.721-7.86-2.396-10.581.727-4.299 4.933-10.506 7.762-17.031 7.762s-12.732-2.829-17.031-7.763c-2.722-3.122-7.459-3.447-10.582-.727-3.123 2.722-3.448 7.459-.727 10.582 7.149 8.203 17.478 12.907 28.339 12.907 10.862 0 21.191-4.705 28.339-12.908 2.722-3.122 2.397-7.859-.726-10.58z"/><path d="m388.025 175.694-8.118-23.237c-8.503-24.337-31.537-40.689-57.317-40.689h-86.46l15.937-29.624 65.202-29.066c11.12-4.957 16.11-17.968 11.152-29.09l-4.867-10.919c-4.957-11.12-17.968-16.11-29.09-11.152l-73.934 32.958c-5.632 2.509-10.342 6.882-13.263 12.312l-34.742 64.58h-105.015c-25.781 0-48.814 16.352-57.317 40.689l-8.119 23.237c-7.555 21.628 6.426 43.723 27.425 47.662 3.745 38.377 12.946 132.662 16.484 168.915.402 4.122 4.068 7.148 8.192 6.736 4.123-.402 7.139-4.07 6.736-8.192l-1.655-16.968c104.807-17.295 158.045 54.07 269.689 19.466l-5.51 56.475c-2.622 26.916-24.993 47.213-52.036 47.213h-152.698c-27.044 0-49.415-20.297-52.037-47.213l-2.826-28.972c-.402-4.122-4.067-7.145-8.192-6.736-4.123.402-7.139 4.07-6.736 8.192l2.826 28.971c3.374 34.638 32.163 60.758 66.965 60.758h152.697c34.802 0 63.592-26.12 66.966-60.757 1.611-16.508 13.564-139.003 15.723-161.134.402-4.123-2.613-7.791-6.736-8.193-4.133-.406-7.791 2.614-8.193 6.736l-4.111 42.128c-93.859 33.543-129.83-32.647-209.433-51.551-23.648-5.628-48.31-5.039-75.276 3.288l-5.706-58.521h300.835l-3.381 34.655c-.402 4.122 2.613 7.791 6.736 8.193 4.13.402 7.79-2.614 8.193-6.736l3.586-36.753c20.997-3.938 34.981-26.031 27.424-47.661zm-167.549-121.401c1.356-2.521 3.543-4.552 6.16-5.718l73.935-32.958c3.547-1.581 7.7.009 9.282 3.559l4.868 10.92c1.581 3.548-.009 7.699-3.559 9.282l-67.541 30.109c-1.516.676-2.765 1.835-3.551 3.297l-20.972 38.984h-29.54zm-68.137 250.239c66.952 30.611 102.38 67.794 181.11 42.633l-2.913 29.845c-111.271 37.898-161.152-36.155-272.741-18.139l-5.967-61.09c35.96-11.471 65.455-9.296 100.511 6.751zm201.402-95.535c-.002 0-.004 0-.006 0h-317.37c-.002 0-.004 0-.006 0-14.701-.004-24.972-14.481-20.125-28.356l8.119-23.237c6.402-18.325 23.746-30.636 43.157-30.636h255.08c19.411 0 36.755 12.312 43.157 30.636l8.119 23.237c4.847 13.878-5.427 28.352-20.125 28.356z"/></g></g></svg>