<svg height="512" viewBox="0 0 61 56" width="512" xmlns="http://www.w3.org/2000/svg"><g id="Page-1" fill="none" fill-rule="evenodd"><g id="038---Cocktails" fill-rule="nonzero"><path id="Shape" d="m31 21.18c.0033047.0937789-.0033999.1876429-.02.28-.42 2.63-6.7 3.81-14.22 2.75-.3-.04-.6-.08-.9-.13-7.9-1.29-13.95-4.54-13.51-7.26.16-.98 1.13-1.75 2.67-2.29.02975962.2724168.10056072.5387638.21.79.85 2.04 3.82 2.74 6.62 1.57 1.440027-.5611681 2.6294283-1.6227532 3.35-2.99.74.08 1.49.18 2.26.3 7.64 1.25 13.54 4.32 13.54 6.98z" fill="#9d27b0"/><path id="Shape" d="m7.675 17.263c-1.07534397-.2268344-1.98116017-.9466712-2.445-1.943-.10943928-.2512362-.18024038-.5175832-.21-.79-.91954216.2542711-1.73859167.7852917-2.346 1.521 1.3113706 1.3035186 3.23835973 1.7705273 5.001 1.212z" fill="#6a1b9a"/><path id="Shape" d="m17.46 14.2c-.77-.12-1.52-.22-2.26-.3-.064.133-.138.264-.216.4 7.381 1.3 13.016 4.282 13.016 6.88.0033047.0937789-.0033999.1876429-.02.28-.284 1.778-3.251 2.89-7.464 3.1 5.754.257 10.117-.922 10.464-3.1.0166001-.0923571.0233047-.1862211.02-.28 0-2.66-5.9-5.73-13.54-6.98z" fill="#6a1b9a"/><path id="Shape" d="m30.98 21.46c-1.16 7.14-7.41 13.3-14.37 13.61-.8392651.0429123-1.6807129-.004021-2.51-.14-.8258917-.137423-1.6364001-.3551215-2.42-.65v-.01c-6.5-2.49-10.48-10.31-9.33-17.45-.44 2.72 5.61 5.97 13.51 7.26.3.05.6.09.9.13 7.52 1.06 13.8-.12 14.22-2.75z" fill="#e91e63"/><path id="Shape" d="m14.745 31.985c-.0538867-.0000902-.1076954-.0041008-.161-.012-3.0581557-.5876812-5.70987643-2.4755633-7.266-5.173-.29353934-.469442-.15094204-1.0879607.3185-1.3815s1.08796066-.150942 1.3815.3185c1.2502995 2.2062032 3.3962299 3.7614737 5.882 4.263.5139272.0836816.8776358.5477302.8361024 1.0667666-.0415333.5190364-.4744076.9193424-.9951024.9202334z" fill="#f5f5f5"/><path id="Shape" d="m16.61 35.07-2.14 13.19v.03h-.01l-.05.37c-.2209139 1.3641433-1.5058567 2.2909139-2.87 2.07s-2.2909139-1.5058567-2.07-2.87l.06-.37h.01v-.03l2.14-13.18c.7835999.2948785 1.5941083.512577 2.42.65.8292871.135979 1.6707349.1829123 2.51.14z" fill="#0377bc"/><path id="Shape" d="m20.84 52.74c-.31 1.91-4.76 2.78-9.94 1.94s-9.12-3.07-8.82-4.98c.26-1.59 3.4-2.46 7.45-2.21l-.06.37c-.14290627.882446.19582226 1.7740994.8885898 2.3390828.6927676.5649835 1.6343263.7174626 2.47.4.8356738-.3174626 1.438504-1.0566368 1.5814102-1.9390828l.05-.37h.01c3.91 1.05 6.63 2.86 6.37 4.45z" fill="#02a9f4"/><path id="Shape" d="m50.32 34.27v.01c-.7835999.2948785-1.5941083.512577-2.42.65-.8292871.135979-1.6707349.1829123-2.51.14-6.96-.31-13.21-6.47-14.37-13.61.42 2.63 6.7 3.81 14.22 2.75.3-.04.6-.08.9-.13 7.9-1.29 13.95-4.54 13.51-7.26 1.15 7.14-2.83 14.96-9.33 17.45z" fill="#e91e63"/><path id="Shape" d="m47.255 31.985c-.5155899-.0086381-.9400701-.4079137-.9802137-.922011-.0401437-.5140973.317214-.9744233.8252137-1.062989 2.4885511-.4991685 4.6377312-2.0543138 5.89-4.262.2935394-.469442.912058-.6120393 1.3815-.3184999.469442.2935393.6120393.9120579.3185 1.3814999-1.5559083 2.697818-4.2076618 4.5860884-7.266 5.174-.055997.0076268-.1124943.0109698-.169.01z" fill="#f5f5f5"/><path id="Shape" d="m51.1 54.68c-5.18.84-9.63-.03-9.94-1.94-.26-1.59 2.46-3.4 6.37-4.45h.01l.05.37c.2209139 1.3641433 1.5058567 2.2909138 2.87 2.0699999 1.3641433-.2209138 2.2909139-1.5058566 2.07-2.8699999l-.06-.37c4.05-.25 7.19.62 7.45 2.21.3 1.91-3.64 4.14-8.82 4.98z" fill="#02a9f4"/><path id="Shape" d="m50.46 50.73c-1.3633442.2175422-2.646139-.7076791-2.87-2.07l-.05-.37h-.01v-.03l-2.14-13.19c.8392651.0429123 1.6807129-.004021 2.51-.14.8258917-.137423 1.6364001-.3551215 2.42-.65l2.14 13.18v.03h.01l.06.37c.2175422 1.3633442-.7076791 2.646139-2.07 2.87z" fill="#0377bc"/><g fill="#e91e63"><path id="Shape" d="m31 9.94c-.5522847 0-1-.44771525-1-1v-6c0-.55228475.4477153-1 1-1s1 .44771525 1 1v6c0 .55228475-.4477153 1-1 1z"/><path id="Shape" d="m25 41.94c-.3601643-.0004285-.6922741-.1945017-.869448-.5080746s-.172037-.698196.013448-1.0069254l3-5c.1806127-.3132279.516242-.5045637.8777878-.5004101.3615459.0041537.6926908.2031497.8660598.5204443.1733689.3172946.1619565.7034632-.0298476 1.0099658l-3 5c-.180941.3011669-.5066582.4852845-.858.485z"/><path id="Shape" d="m37 41.94c-.3513418.0002845-.677059-.1838331-.858-.485l-3-5c-.2723636-.472347-.1161362-1.075816.3512161-1.3566637.4673523-.2808476 1.0735437-.1355416 1.3627839.3266637l3 5c.185485.3087294.1906219.6933525.013448 1.0069254s-.5092837.5076461-.869448.5080746z"/><path id="Shape" d="m26 11.94c-.2268173-.0001205-.4468557-.0773455-.624-.219l-5-4c-.2790244-.22329099-.4177293-.57847814-.3638659-.93176588.0538635-.35328774.2921122-.65100326.6250001-.78100001.3328878-.12999674.7098414-.07252511.9888658.15076589l5 4c.3319233.2654234.4598195.711651.3188902 1.1126018-.1409294.4009507-.5198935.6690231-.9448902.6683982z"/><path id="Shape" d="m36 11.94c-.4249967.0006249-.8039608-.2674475-.9448902-.6683982-.1409293-.4009508-.0130331-.8471784.3188902-1.1126018l5-4c.2790244-.22329099.655978-.28076262.9888658-.15076588.3328879.12999675.5711366.42771226.625.781.0538635.35328774-.0848414.70847489-.3638658.93176588l-5 4c-.1771443.1416545-.3971827.2188795-.624.219z"/></g><path id="Shape" d="m15.2 13.9c-.7205717 1.3672468-1.909973 2.4288319-3.35 2.99-2.8 1.17-5.77.47-6.62-1.57-.10943928-.2512362-.18024038-.5175832-.21-.79-.23-1.88 1.29-4 3.74-5.02 2.8-1.17 5.77-.47 6.62 1.57.3549294.9211459.289165 1.9514559-.18 2.82z" fill="#a4c400"/><path id="Shape" d="m15.38 11.08c-.731-1.755-3.033-2.51-5.445-1.944 1.0749994.22821473 1.9803925.9480855 2.445 1.944.3549294.9211459.289165 1.9514559-.18 2.82-.7205717 1.3672468-1.909973 2.4288319-3.35 2.99-.38059926.1568287-.77363199.2815957-1.175.373 1.39509119.3344767 2.8612952.2034841 4.175-.373 1.440027-.5611681 2.6294283-1.6227532 3.35-2.99.469165-.8685441.5349294-1.8988541.18-2.82z" fill="#90ac00"/><circle id="Oval" cx="4" cy="3.94" fill="#f44335" r="2"/><path id="Shape" d="m46.14 24.08c-.3.05-.6.09-.9.13-7.52 1.06-13.8-.12-14.22-2.75-.0166001-.0923571-.0233047-.1862211-.02-.28 0-2.66 5.9-5.73 13.54-6.98.77-.12 1.52-.22 2.26-.3.7205717 1.3672468 1.909973 2.4288319 3.35 2.99 2.8 1.17 5.77.47 6.62-1.57.1094393-.2512362.1802404-.5175832.21-.79 1.54.54 2.51 1.31 2.67 2.29.44 2.72-5.61 5.97-13.51 7.26z" fill="#9d27b0"/><path id="Shape" d="m47.15 16.89c1.3136863.5765561 2.7799142.7075508 4.175.373-.401368-.0914043-.7944007-.2161713-1.175-.373-1.440027-.5611681-2.6294283-1.6227532-3.35-2.99-.74.08-1.49.18-2.26.3-.177.029-.349.064-.524.1.7465137 1.1712425 1.8431013 2.0774844 3.134 2.59z" fill="#6a1b9a"/><path id="Shape" d="m59.65 16.82c-.16-.98-1.13-1.75-2.67-2.29-.0297596.2724168-.1005607.5387638-.21.79-.1119566.263812-.2615068.510031-.444.731.1636511.2291567.2743199.4918243.324.769.44 2.72-5.61 5.97-13.51 7.26-.3.05-.6.09-.9.13-1.3.183-2.556.295-3.756.348 2.2579248.0949577 4.5197818-.02155 6.756-.348.3-.04.6-.08.9-.13 7.9-1.29 13.95-4.54 13.51-7.26z" fill="#6a1b9a"/><path id="Shape" d="m56.98 14.53c-.0297596.2724168-.1005607.5387638-.21.79-.85 2.04-3.82 2.74-6.62 1.57-1.440027-.5611681-2.6294283-1.6227532-3.35-2.99-.469165-.8685441-.5349294-1.8988541-.18-2.82.85-2.04 3.82-2.74 6.62-1.57 2.45 1.02 3.97 3.14 3.74 5.02z" fill="#a4c400"/><path id="Shape" d="m53.24 9.51c-1.3137224-.576315-2.7797627-.70764411-4.175-.374.4012684.09220351.794263.21729284 1.175.374 2.45 1.02 3.97 3.14 3.74 5.02-.0297596.2724168-.1005607.5387638-.21.79-.4638398.9963288-1.369656 1.7161656-2.445 1.943 2.412.567 4.714-.188 5.445-1.943.1094393-.2512362.1802404-.5175832.21-.79.23-1.88-1.29-4-3.74-5.02z" fill="#90ac00"/><circle id="Oval" cx="58" cy="3.94" fill="#f44335" r="2"/><circle id="Oval" cx="12" cy="11.94" fill="#000" r="1"/><path id="Shape" d="m58 6.94c1.6568542 0 3-1.34314575 3-3s-1.3431458-3-3-3-3 1.34314575-3 3c.0028237.67066465.2326331 1.32061633.652 1.844l-1.825 2.9c-.07-.032-.132-.073-.2-.1-1.4646104-.63983418-3.0929219-.80455384-4.656-.471-1.4453033.27238806-2.6662908 1.23386907-3.27 2.575-.3070783.753191-.3816121 1.5810729-.214 2.377-.368.049-.727.088-1.105.147-5.564.91-11.165 3-13.379 5.621-2.214-2.62-7.816-4.711-13.386-5.622-.374-.059-.732-.1-1.1-.146.1676121-.7959271.0930783-1.623809-.214-2.377-.6037092-1.34113093-1.8246967-2.30261194-3.27-2.575-1.5630781-.33355384-3.19138964-.16883418-4.656.471-.071.03-.133.071-.2.1l-1.825-2.9c.41793078-.52391355.64631244-1.17381443.648-1.844.01064541-1.28908646-.79683284-2.44328779-2.01146649-2.87517007-1.21463366-.43188229-2.5695197-.04654392-3.37508517.9598961-.80556547 1.00644001-.8847958 2.412827-.1973665 3.50337649s1.99046285 1.62562463 3.24591816 1.33289748l1.8 2.857c-.6703942.5106836-1.24322332 1.1380517-1.691 1.852-.43250928.6914952-.69216026 1.4769651-.757 2.29-1.922.849-2.514 1.968-2.652 2.8.00049789.0079923.00049789.0160077 0 .024-1.227 7.636 2.896 15.295 9.206 18.186l-1.879 11.585c-3.564-.082-7.2.681-7.6 3.089-.455 2.919 4.511 5.289 9.651 6.123 1.3150433.2165402 2.6452575.327893 3.978.333 1.0630596.0083947 2.1245074-.0843564 3.17-.277 2.971-.581 3.782-1.856 3.939-2.822.39-2.39-2.819-4.264-6.228-5.323l1.876-11.571c5.818-.63 11.219-4.984 13.525-10.907 2.306 5.924 7.707 10.278 13.525 10.908l1.875 11.57c-3.409 1.059-6.618 2.933-6.228 5.322.157.967.968 2.242 3.939 2.823 1.0454926.1926436 2.1069404.2853947 3.17.277 1.3327406-.0051494 2.6629514-.1165019 3.978-.333 5.14-.834 10.106-3.2 9.647-6.128-.394-2.415-4.06-3.172-7.6-3.084l-1.874-11.585c6.309-2.891 10.432-10.55 9.207-18.186-.0004989-.0083259-.0004989-.0166741 0-.025-.137-.831-.73-1.95-2.652-2.8-.0648397-.8130349-.3244907-1.5985048-.757-2.29-.4465858-.7136081-1.0180399-1.3409543-1.687-1.852l1.8-2.857c.2153878.05076828.4357229.07759752.657.08zm-55-3c0-.55228475.44771525-1 1-1s1 .44771525 1 1-.44771525 1-1 1-1-.44771525-1-1zm41.694 11.248c.54-.084 1.061-.147 1.585-.211.5781422.8751957 1.3376233 1.61592 2.227 2.172l-3.86 6.127c-7.448.966-12.344-.454-12.631-1.952v-.024-.009c0-.026 0-.095-.006-.111-.009-1.6 4.514-4.655 12.685-5.992zm-27.4 0c8.183 1.337 12.706 4.392 12.706 5.992l-.006.111v.009.025c-.286 1.5-5.178 2.916-12.632 1.951l-3.859-6.127c.8893767-.55608 1.6488578-1.2968043 2.227-2.172.514.064 1.035.123 1.57.21zm-10.814-2.58c.46095215-.7281982 1.09253031-1.3330029 1.84-1.762.008-.005.017-.007.026-.012.25732804-.1512457.52460663-.284885.8-.4.73964103-.3164884 1.5345345-.48369129 2.339-.492.3648908-.00136289.7286911.03991703 1.084.123.8183567.1335496 1.5212795.6553375 1.886 1.4.628 1.5-.743 3.562-2.993 4.5s-4.682.469-5.309-1.031c-.27377428-.7825716-.1519329-1.6492476.327-2.326zm-2.08 3.279c.95700873 1.6940699 2.80060677 2.6893485 4.742 2.56.8609628-.006504 1.7151284-.1530868 2.529-.434l3.051 4.844c-7.322-1.432-11.607-4.344-11.385-5.864v-.014c.063-.379.446-.756 1.063-1.092zm9.539 20.034c.4968096.0768473.9976441.1249275 1.5.144l-2.016 12.435c-.1373738.8157283-.9058738 1.3687985-1.723 1.24-.3928447-.0637976-.7442315-.2811018-.9767995-.6040712s-.3272498-.7251251-.2632005-1.1179288l2.015-12.426c.4824911.1382304.9726636.2480852 1.468.329zm5.91 16.659c-.058.358-.818.881-2.348 1.18-2.1362994.3431227-4.3154171.3201276-6.444-.068-5.423-.879-8.125-3-7.994-3.831.088-.538 1.807-1.439 5.386-1.4.09152611 1.6384686 1.31156981 2.9921515 2.9317478 3.2528809 1.620178.2607293 3.2033135-.6418481 3.8042522-2.1688809 3.415 1.087 4.755 2.498 4.668 3.035zm-5.585-18.634c-5.964-.967-10.62-7.02-11.064-13.598 2.58 2.185 7.48 3.9 12.5 4.718.311.052.621.094.925.134 1.8218736.2603961 3.6596212.3940504 5.5.4 2.3499795.0719891 4.6940625-.2740535 6.923-1.022-2.516 6.08-8.828 10.335-14.784 9.368zm38.636 16.36c.3894023-.540242.6153681-1.1809993.651-1.846 3.564-.052 5.3.859 5.385 1.395.132.841-2.57 2.958-7.993 3.837-2.1285829.3881276-4.3077006.4111227-6.444.068-1.53-.3-2.29-.822-2.348-1.181-.088-.536 1.256-1.947 4.664-3.034.4682294 1.1891656 1.5485185 2.0276771 2.816667 2.1862738s2.5216671-.388045 3.268333-1.4252738zm-1.358-2.287c.0637212.3929461-.0313673.7951061-.2643225 1.1179047-.2329551.3227985-.5846692.5397588-.9776775.6030953-.8175343.1305166-1.5871257-.423339-1.723-1.24l-.068-.422v-.025l-1.948-11.988c.5023527-.0191214 1.0031844-.0672012 1.5-.144.494663-.0809913.9841655-.1908456 1.466-.329zm-3.8-14.073c-5.95.967-12.276-3.295-14.784-9.385 2.2330297.7595822 4.5844316 1.1115135 6.942 1.039 1.8320406-.0069151 3.6614081-.1405675 5.475-.4.311-.041.621-.083.928-.135 5.018-.819 9.919-2.533 12.5-4.719-.447 6.579-5.103 12.633-11.067 13.6zm10.919-16.972v.014c.22 1.522-4.066 4.431-11.389 5.864l3.051-4.844c.8138716.2809132 1.6680372.427496 2.529.434 1.9413932.1293485 3.7849913-.8659301 4.742-2.56.624.341 1.006.718 1.067 1.092zm-2.815-2.04c-.628 1.5-3.058 1.971-5.309 1.031s-3.621-3-2.993-4.5c.3647205-.7446625 1.0676433-1.2664504 1.886-1.4.3553089-.08308297.7191092-.12436289 1.084-.123.8044655.00830871 1.599359.1755116 2.339.492.2753934.115115.542672.2487543.8.4.009.005.018.007.026.012.7474697.4289971 1.3790478 1.0338018 1.84 1.762.4789329.6767524.6007743 1.5434284.327 2.326zm2.154-11.994c.5522847 0 1 .44771525 1 1s-.4477153 1-1 1-1-.44771525-1-1 .4477153-1 1-1z" fill="#000"/><circle id="Oval" cx="50" cy="11.94" fill="#000" r="1"/></g></g></svg>