<?xml version="1.0" encoding="iso-8859-1"?>
<!-- Generator: Adobe Illustrator 19.0.0, SVG Export Plug-In . SVG Version: 6.00 Build 0)  -->
<svg version="1.1" id="Capa_1" xmlns="http://www.w3.org/2000/svg" xmlns:xlink="http://www.w3.org/1999/xlink" x="0px" y="0px"
	 viewBox="0 0 512.001 512.001" style="enable-background:new 0 0 512.001 512.001;" xml:space="preserve">
<path style="fill:#FDA162;" d="M320.364,252.154c0,11.322-9.178,20.5-20.5,20.5s-20.5-9.178-20.5-20.5v20
	c0,11.322-9.178,20.5-20.5,20.5c-11.322,0-20.5-9.178-20.5-20.5V215.67H105.848L251.904,502l146.057-286.33h-77.597L320.364,252.154
	L320.364,252.154z"/>
<g>
	<path style="fill:#975D50;" d="M181.415,96.941c29.546,0,55.512,15.262,70.495,38.32c14.975-23.06,40.938-38.32,70.485-38.32
		c4.576,0,9.06,0.365,13.438,1.069c0.062-1.324,0.103-2.64,0.103-3.979c0-46.409-37.622-84.031-84.031-84.031
		s-84.031,37.622-84.031,84.031c0,1.339,0.039,2.655,0.101,3.979C172.352,97.306,176.838,96.941,181.415,96.941z"/>
</g>
<path d="M290.571,71.67c-2.64,0-5.21-1.07-7.08-2.93c-0.46-0.46-0.88-0.97-1.239-1.52c-0.36-0.54-0.67-1.12-0.92-1.72
	c-0.25-0.61-0.44-1.24-0.57-1.88c-0.13-0.64-0.2-1.3-0.2-1.95s0.07-1.31,0.2-1.95s0.32-1.27,0.57-1.87
	c0.25-0.61,0.56-1.19,0.92-1.73c0.359-0.55,0.779-1.06,1.239-1.52c1.86-1.86,4.44-2.93,7.08-2.93c2.631,0,5.2,1.07,7.061,2.93
	c0.47,0.46,0.88,0.97,1.25,1.52c0.359,0.54,0.67,1.12,0.92,1.73c0.25,0.6,0.439,1.23,0.57,1.87c0.13,0.64,0.199,1.3,0.199,1.95
	s-0.069,1.31-0.199,1.95c-0.131,0.64-0.32,1.27-0.57,1.88c-0.25,0.6-0.561,1.18-0.92,1.72c-0.37,0.55-0.78,1.06-1.25,1.52
	C295.772,70.6,293.202,71.67,290.571,71.67z"/>
<path style="fill:#975D50;" d="M202.874,94.031c0-27.036,21.995-49.031,49.03-49.031c3.64,0,7.188,0.399,10.604,1.155"/>
<path style="fill:#FDFA7B;" d="M238.437,178.061c1.537-45.059,38.524-81.12,83.957-81.12c46.409,0,84.031,37.622,84.031,84.031
	c0,18.232-8.464,34.699-8.464,34.699h-77.597v36.484c0,11.322-9.178,20.5-20.5,20.5s-20.5-9.178-20.5-20.5v20
	c0,11.322-9.178,20.5-20.5,20.5c-11.322,0-20.5-9.178-20.5-20.5v-94.093L238.437,178.061L238.437,178.061z"/>
<g>
	<path style="fill:#FD7555;" d="M238.364,178.061h0.074c0.537-15.755,5.421-30.402,13.472-42.8
		c-14.982-23.058-40.948-38.32-70.495-38.32c-46.409,0-84.031,37.622-84.031,84.031c0,18.232,8.464,34.699,8.464,34.699h132.516
		V178.061z"/>
	<path style="fill:#FD7555;" d="M407.8,60.867c-8.836-8.836-24.295-4.591-25.621-5.917c-1.162-1.162,3.312-16.392-5.921-25.625
		c-8.981-8.981-23.722-8.909-33.173-0.416c-5.337,4.793-7.558,10.284-8.749,16.079c-2.379,11.575,0.928,48.479,5.157,52.708
		c4.318,4.318,40.979,7.506,52.648,5.097c5.817-1.202,11.284-3.414,16.078-8.75C416.711,84.59,416.783,69.85,407.8,60.867z"/>
</g>
<path d="M387.702,113.389c2.423-0.165,4.625-0.424,6.463-0.804c5.714-1.181,14.158-3.695,21.492-11.86
	c12.245-13.629,11.899-34.243-0.786-46.929l0,0c-6.901-6.901-15.824-8.471-22.632-8.707c-0.218-6.782-1.855-15.78-8.911-22.835
	c-12.687-12.686-33.299-13.029-46.925-0.785c-5.491,4.932-8.42,10.354-10.111,15.115C309.079,14.346,282.137,0,251.904,0
	C201.44,0,160.14,39.961,157.97,89.9c-40.542,10.443-70.586,47.315-70.586,91.072c0,20.224,9.001,38.157,9.551,39.233
	c0.002,0.003,0.003,0.006,0.004,0.01l146.057,286.33c1.708,3.348,5.149,5.456,8.908,5.456s7.2-2.108,8.908-5.456l146.057-286.33
	c0.001-0.002,0.002-0.004,0.003-0.006c0.539-1.055,9.553-18.998,9.553-39.236C416.425,154.47,405.401,130.498,387.702,113.389z
	 M396.425,180.972c0,9.711-2.877,19.058-5.033,24.699h-71.028c-5.523,0-10,4.477-10,10v36.483c0,5.79-4.71,10.5-10.5,10.5
	s-10.5-4.71-10.5-10.5c0-5.523-4.478-10-10-10c-5.523,0-10,4.477-10,10v20c0,5.79-4.71,10.5-10.5,10.5c-5.79,0-10.5-4.71-10.5-10.5
	v-92.872l0,0c0.035-0.289,0.059-0.583,0.068-0.88c0.037-1.079,0.107-2.148,0.188-3.213c0.029-0.376,0.061-0.752,0.096-1.128
	c0.06-0.657,0.135-1.31,0.212-1.962c1.344-11.17,5.214-21.916,11.368-31.391c0-0.001,0.001-0.002,0.001-0.003
	c11.892-18.312,30.9-30.225,52.119-33.088c0.536-0.071,1.073-0.138,1.612-0.198c0.424-0.048,0.846-0.099,1.271-0.14
	c0.978-0.092,1.962-0.163,2.952-0.217c0.294-0.016,0.588-0.029,0.882-0.041c1.082-0.046,2.168-0.08,3.262-0.08
	c1.161,0,2.314,0.035,3.463,0.088c0.347,0.016,0.692,0.041,1.039,0.062c0.839,0.051,1.675,0.113,2.506,0.191
	c0.337,0.032,0.673,0.064,1.009,0.1c0.966,0.104,1.928,0.226,2.883,0.367c0.159,0.023,0.319,0.042,0.477,0.067
	C369.21,113.306,396.425,144.019,396.425,180.972z M285.343,414.44l-22.212-43.545l36.061-70.693l21.118,41.4
	c0.347,0.68,0.777,1.284,1.245,1.847L285.343,414.44z M228.363,253.652v18.502c0,16.818,13.683,30.5,30.5,30.5
	c8.062,0,15.392-3.157,20.851-8.284l-27.81,54.518l-36.061-70.693L228.363,253.652z M204.618,256.187l-15.567-30.517h31.134
	L204.618,256.187z M344.132,47c1-4.869,2.633-7.955,5.637-10.653c5.625-5.054,14.336-5.032,19.418,0.049
	c3.615,3.615,3.175,10.405,2.912,14.461c-0.221,3.413-0.496,7.659,3.009,11.165c3.482,3.481,7.727,3.295,11.471,3.133
	c4.073-0.178,10.894-0.474,14.15,2.783c5.083,5.083,5.106,13.795,0.051,19.421c-2.692,2.997-5.781,4.631-10.66,5.64
	c-8.298,1.712-32.721-0.2-42.074-2.502c-0.346-0.098-0.695-0.188-1.043-0.283C344.623,81.737,342.423,55.312,344.132,47z
	 M178.205,86.995C181.759,49.461,213.456,20,251.904,20c38.449,0,70.147,29.461,73.7,66.995c-0.103-0.003-0.206-0.002-0.309-0.005
	c-0.964-0.029-1.93-0.049-2.901-0.049c-1.411,0-2.816,0.039-4.217,0.101c-0.186,0.008-0.372,0.013-0.558,0.022
	c-1.306,0.066-2.606,0.162-3.901,0.281c-0.279,0.026-0.557,0.051-0.836,0.078c-1.239,0.125-2.473,0.273-3.701,0.446
	c-0.326,0.046-0.65,0.095-0.974,0.144c-1.199,0.182-2.395,0.381-3.582,0.608c-0.33,0.063-0.657,0.133-0.985,0.2
	c-1.068,0.216-2.13,0.447-3.187,0.7c-0.391,0.093-0.78,0.19-1.169,0.288c-1,0.253-1.995,0.523-2.984,0.807
	c-0.363,0.105-0.728,0.204-1.09,0.313c-1.09,0.328-2.17,0.682-3.245,1.048c-0.388,0.132-0.776,0.264-1.163,0.402
	c-1.074,0.383-2.141,0.785-3.199,1.207c-0.351,0.14-0.701,0.283-1.051,0.427c-1.1,0.453-2.192,0.924-3.273,1.418
	c-0.257,0.117-0.51,0.24-0.766,0.359c-1.173,0.549-2.338,1.117-3.487,1.715c-0.078,0.04-0.154,0.083-0.231,0.124
	c-9.205,4.82-17.6,11.174-24.823,18.862c-0.065,0.069-0.131,0.136-0.196,0.205c-0.632,0.677-1.257,1.361-1.87,2.058
	c-0.115-0.131-0.234-0.257-0.35-0.387c-0.242-0.272-0.487-0.54-0.731-0.809c-0.377-0.414-0.758-0.825-1.141-1.231
	c-0.253-0.268-0.507-0.535-0.764-0.8c-0.394-0.407-0.792-0.809-1.193-1.209c-0.248-0.248-0.495-0.496-0.745-0.741
	c-0.457-0.445-0.919-0.883-1.384-1.318c-0.199-0.186-0.394-0.376-0.594-0.561c-0.661-0.609-1.33-1.208-2.008-1.797
	c-0.169-0.147-0.343-0.289-0.514-0.435c-0.517-0.443-1.037-0.883-1.564-1.314c-0.262-0.215-0.527-0.424-0.791-0.635
	c-0.445-0.356-0.891-0.71-1.341-1.058c-0.288-0.222-0.578-0.442-0.869-0.66c-0.439-0.331-0.881-0.658-1.326-0.981
	c-0.294-0.214-0.588-0.426-0.885-0.637c-0.462-0.327-0.928-0.648-1.395-0.967c-0.281-0.191-0.56-0.385-0.843-0.573
	c-0.549-0.366-1.103-0.722-1.659-1.076c-0.204-0.13-0.405-0.264-0.61-0.392c-0.757-0.473-1.521-0.935-2.29-1.386
	c-0.215-0.125-0.432-0.245-0.648-0.369c-0.565-0.325-1.132-0.647-1.703-0.96c-0.298-0.163-0.598-0.321-0.897-0.48
	c-0.499-0.266-1-0.53-1.503-0.787c-0.32-0.164-0.642-0.324-0.964-0.484c-0.496-0.246-0.994-0.487-1.494-0.724
	c-0.322-0.153-0.645-0.306-0.969-0.455c-0.525-0.242-1.053-0.476-1.583-0.708c-0.298-0.131-0.596-0.264-0.895-0.392
	c-0.656-0.279-1.316-0.548-1.978-0.812c-0.175-0.07-0.348-0.144-0.523-0.212c-0.835-0.327-1.675-0.641-2.52-0.945
	c-0.104-0.038-0.209-0.074-0.314-0.111C213.802,71.605,230.947,55,251.904,55c2.849,0,5.69,0.309,8.444,0.918
	c5.389,1.195,10.73-2.21,11.924-7.603c1.193-5.392-2.211-10.731-7.603-11.924C260.498,35.468,256.203,35,251.904,35
	c-30.403,0-55.503,23.105-58.683,52.677c-0.21-0.026-0.423-0.045-0.633-0.07c-0.577-0.069-1.155-0.133-1.734-0.191
	c-0.359-0.036-0.718-0.069-1.078-0.101c-0.576-0.051-1.154-0.096-1.732-0.136c-0.351-0.024-0.702-0.05-1.054-0.071
	c-0.627-0.037-1.256-0.064-1.885-0.089c-0.299-0.012-0.598-0.027-0.897-0.036c-0.928-0.027-1.859-0.044-2.792-0.044
	c-0.971,0-1.938,0.02-2.901,0.049C178.411,86.993,178.308,86.992,178.205,86.995z M170.05,107.814
	c0.144-0.022,0.289-0.04,0.434-0.061c0.966-0.144,1.939-0.266,2.917-0.372c0.335-0.036,0.67-0.069,1.006-0.1
	c0.831-0.078,1.666-0.141,2.505-0.191c0.347-0.021,0.694-0.046,1.042-0.062c1.148-0.053,2.301-0.088,3.462-0.088
	c0.756,0,1.509,0.013,2.261,0.035c0.25,0.008,0.499,0.022,0.748,0.032c0.501,0.02,1.002,0.04,1.501,0.071
	c0.296,0.018,0.59,0.043,0.885,0.064c0.453,0.033,0.905,0.066,1.356,0.106c0.31,0.028,0.619,0.062,0.929,0.094
	c0.434,0.045,0.867,0.091,1.298,0.143c0.316,0.038,0.631,0.081,0.947,0.123c0.423,0.057,0.846,0.116,1.268,0.18
	c0.317,0.048,0.633,0.099,0.948,0.151c0.419,0.069,0.838,0.142,1.255,0.218c0.313,0.057,0.625,0.116,0.937,0.177
	c0.42,0.083,0.839,0.17,1.257,0.259c0.304,0.065,0.608,0.131,0.911,0.199c0.428,0.097,0.854,0.201,1.28,0.306
	c0.289,0.071,0.579,0.141,0.867,0.216c0.444,0.115,0.886,0.238,1.327,0.361c0.266,0.075,0.534,0.146,0.799,0.223
	c0.485,0.142,0.968,0.292,1.449,0.443c0.217,0.068,0.436,0.132,0.652,0.203c0.646,0.21,1.289,0.428,1.928,0.655
	c0.05,0.018,0.101,0.034,0.151,0.051c0.699,0.25,1.393,0.51,2.083,0.781c0.146,0.057,0.29,0.119,0.436,0.178
	c0.534,0.213,1.067,0.43,1.596,0.655c0.221,0.095,0.44,0.194,0.661,0.291c0.45,0.197,0.899,0.395,1.345,0.602
	c0.246,0.114,0.49,0.233,0.735,0.349c0.416,0.198,0.832,0.397,1.244,0.604c0.255,0.127,0.507,0.258,0.76,0.388
	c0.399,0.205,0.797,0.412,1.192,0.625c0.257,0.138,0.512,0.278,0.767,0.419c0.387,0.214,0.772,0.431,1.156,0.652
	c0.255,0.147,0.509,0.295,0.762,0.446c0.38,0.225,0.758,0.455,1.135,0.687c0.248,0.153,0.496,0.306,0.742,0.462
	c0.381,0.241,0.758,0.487,1.135,0.736c0.235,0.155,0.471,0.31,0.705,0.468c0.387,0.262,0.77,0.53,1.152,0.799
	c0.217,0.153,0.436,0.304,0.652,0.46c0.408,0.294,0.812,0.596,1.214,0.899c0.184,0.138,0.369,0.273,0.551,0.413
	c0.486,0.373,0.967,0.755,1.445,1.14c0.094,0.076,0.19,0.148,0.283,0.225c0.578,0.471,1.15,0.952,1.715,1.441
	c0.063,0.055,0.124,0.112,0.187,0.167c0.491,0.429,0.977,0.863,1.458,1.305c0.169,0.156,0.334,0.316,0.501,0.473
	c0.37,0.347,0.739,0.695,1.102,1.05c0.198,0.193,0.392,0.391,0.588,0.587c0.326,0.326,0.652,0.654,0.973,0.987
	c0.208,0.216,0.413,0.435,0.618,0.654c0.303,0.321,0.604,0.644,0.901,0.972c0.21,0.231,0.417,0.465,0.624,0.699
	c0.286,0.323,0.57,0.648,0.851,0.977c0.208,0.243,0.413,0.488,0.618,0.734c0.274,0.329,0.545,0.661,0.814,0.995
	c0.202,0.252,0.404,0.505,0.604,0.76c0.101,0.129,0.2,0.261,0.3,0.391c-4.225,7.682-7.348,15.922-9.276,24.52
	c-0.086,0.379-0.165,0.76-0.246,1.14c-0.216,1.022-0.418,2.047-0.6,3.078c-0.128,0.716-0.248,1.434-0.359,2.153
	c-0.075,0.492-0.152,0.983-0.219,1.476c-0.159,1.153-0.296,2.309-0.412,3.468c-0.032,0.322-0.059,0.646-0.088,0.969
	c-0.116,1.297-0.215,2.597-0.278,3.901c-0.087,0.532-0.133,1.079-0.133,1.636v27.609H112.417c-2.158-5.646-5.033-14.99-5.033-24.699
	C107.384,144.015,134.605,113.299,170.05,107.814z M166.599,225.67l26.793,52.524l-22.212,43.544l-49.005-96.069L166.599,225.67
	L166.599,225.67z M251.904,479.993l-69.651-136.544c0.468-0.562,0.899-1.167,1.245-1.847l21.119-41.4l36.061,70.693l-11.223,22.002
	c-2.51,4.919-0.556,10.942,4.364,13.452c1.455,0.742,3.007,1.094,4.536,1.094c3.639,0,7.148-1.994,8.916-5.458l4.633-9.082
	l22.212,43.545L251.904,479.993z M332.629,321.739l-21.119-41.402c11.055-4.586,18.853-15.489,18.853-28.184V225.67h51.27
	L332.629,321.739z"/>
<g>
</g>
<g>
</g>
<g>
</g>
<g>
</g>
<g>
</g>
<g>
</g>
<g>
</g>
<g>
</g>
<g>
</g>
<g>
</g>
<g>
</g>
<g>
</g>
<g>
</g>
<g>
</g>
<g>
</g>
</svg>
