<svg id="Capa_1" enable-background="new 0 0 512 512" height="512" viewBox="0 0 512 512" width="512" xmlns="http://www.w3.org/2000/svg"><g><g><path d="m227.918 495.067h-63.713c-.184 0-.367 0-.551-.01l-52.701-96.997 21.661-96.997h79.555l43.831 97.002z" fill="#f9ed80"/><path d="m379.386 301.062 18.687 97.003-49.728 96.992c-.184.01-.367.01-.551.01h-63.713l-28.081-97.002 43.832-97.003z" fill="#f9ed80"/><path d="m453.749 301.062-35.947 139.738c-8.171 31.765-36.702 54.022-69.456 54.257l31.04-193.995z" fill="#9ae0eb"/><path d="m299.832 301.062-15.75 194.005h-56.164l-15.75-194.005z" fill="#9ae0eb"/><path d="m119.999 357.551-9.046 40.508 52.701 96.998c.184.01.367.01.551.01h44.093c-40.648-36.685-71.538-83.975-88.299-137.516z" fill="#f9d888"/><path d="m163.654 495.057c-32.754-.235-61.285-22.492-69.456-54.257l-35.947-139.738h74.362z" fill="#9ae0eb"/><path d="m108.003 301.062h-49.752l35.947 139.738c8.171 31.765 36.702 54.022 69.456 54.257l-10.507-65.664c-23.862-38.024-39.697-81.588-45.144-128.331z" fill="#64d1e1"/><path d="m475.108 207.226-.077-.099.033-.198c8.775-43.875-16.522-87.271-58.776-101.41v-.022c-14.061-41.957-57.298-67.655-101.608-58.71-.265-.156-22.018-22.238-58.709-22.238-36.625 0-58.446 22.083-58.709 22.238-44.35-8.953-87.557 16.782-101.609 58.709v.022c-42.286 14.15-67.544 57.572-58.776 101.41l.033.198c-41.178 47.637-5.956 117.331 53.263 117.331h331.595c60.279.001 94.058-71.423 53.34-117.231z" fill="#e7886e"/><circle cx="174.395" cy="162.773" fill="#ffb3dd" r="29.745"/><path d="m105.881 264.791c0-85.129 34.311-162.238 89.848-218.276-43.809-8.062-86.186 17.538-100.076 58.981v.022c-42.286 14.15-67.544 57.571-58.776 101.41l.033.198c-41.178 47.637-5.956 117.331 53.263 117.331h21.466c-3.765-19.31-5.758-39.254-5.758-59.666z" fill="#e27858"/><circle cx="196.511" cy="46.677" fill="#ffb3dd" r="29.745"/><circle cx="337.605" cy="162.773" fill="#f9ed80" r="29.745"/><circle cx="315.489" cy="46.677" fill="#f9ed80" r="29.745"/><circle cx="416.422" cy="106.167" fill="#ffb3dd" r="29.745"/><circle cx="474.755" cy="206.288" fill="#f9ed80" r="29.745"/><path d="m176.085 68.289c12.594-15.357 26.632-29.483 41.91-42.171-5.415-5.657-13.035-9.185-21.484-9.185-16.428 0-29.745 13.317-29.745 29.745 0 8.515 3.584 16.188 9.319 21.611z" fill="#ff9dd3"/><circle cx="95.578" cy="106.167" fill="#f9d888" r="29.745"/><circle cx="37.245" cy="206.288" fill="#ff9dd3" r="29.745"/></g><g><path d="m157.197 224.391c-4.142 0-7.5 3.358-7.5 7.5v18.986c0 4.142 3.358 7.5 7.5 7.5s7.5-3.358 7.5-7.5v-18.986c0-4.142-3.358-7.5-7.5-7.5z"/><path d="m354.803 224.391c-4.142 0-7.5 3.358-7.5 7.5v18.986c0 4.142 3.358 7.5 7.5 7.5s7.5-3.358 7.5-7.5v-18.986c0-4.142-3.358-7.5-7.5-7.5z"/><path d="m287.703 255.239c2.721-3.123 2.396-7.86-.727-10.582s-7.86-2.397-10.582.727c-10.78 12.369-29.979 12.405-40.789 0-2.721-3.123-7.459-3.448-10.582-.727-3.123 2.722-3.448 7.459-.727 10.582 16.747 19.217 46.612 19.272 63.407 0z"/><path d="m174.395 200.018c20.537 0 37.245-16.708 37.245-37.245s-16.708-37.245-37.245-37.245-37.245 16.708-37.245 37.245 16.708 37.245 37.245 37.245zm0-59.49c12.266 0 22.245 9.979 22.245 22.245s-9.979 22.245-22.245 22.245-22.245-9.979-22.245-22.245 9.979-22.245 22.245-22.245z"/><path d="m337.604 200.018c20.537 0 37.245-16.708 37.245-37.245s-16.708-37.245-37.245-37.245-37.245 16.708-37.245 37.245c.001 20.537 16.709 37.245 37.245 37.245zm0-59.49c12.266 0 22.245 9.979 22.245 22.245s-9.979 22.245-22.245 22.245-22.245-9.979-22.245-22.245 9.98-22.245 22.245-22.245z"/><path d="m29.732 169.805c-16.948 3.485-29.732 18.519-29.732 36.483 0 11.677 5.406 22.111 13.842 28.945-8.926 35.926 9.623 73.665 42.697 89.277l30.396 118.158c9.003 35.003 40.529 59.63 76.666 59.889h.054c.009 0 .018-.001.028-.001.175.004.349.012.524.012h183.59c.174 0 .348-.008.522-.012.01 0 .019.001.029.001h.054c36.136-.259 67.662-24.886 76.666-59.889l30.403-118.187c33.216-15.717 51.519-53.726 42.766-89.308 8.39-6.835 13.763-17.243 13.763-28.885 0-17.982-12.811-33.028-29.785-36.493-4.249-20.265-14.833-38.463-30.354-52.185 1.168-3.608 1.806-7.452 1.806-11.443 0-20.537-16.708-37.245-37.245-37.245-4.021 0-7.891.648-11.521 1.833-13.804-15.965-32.235-26.827-52.849-31.148-3.313-17.167-18.444-30.174-36.563-30.174-11.217 0-21.284 4.991-28.118 12.862-20.231-6.973-42.388-7.021-62.749-.007-6.834-7.866-16.898-12.854-28.112-12.854-18.111 0-33.237 12.997-36.559 30.151-20.637 4.312-39.086 15.177-52.9 31.154-3.616-1.174-7.47-1.816-11.473-1.816-20.537 0-37.245 16.708-37.245 37.245 0 3.974.632 7.801 1.79 11.396-15.545 13.73-26.142 31.948-30.391 52.241zm7.513 14.238c12.266 0 22.245 9.979 22.245 22.245 0 12.305-10.033 22.245-22.245 22.245-12.199 0-22.245-9.926-22.245-22.245 0-12.26 9.983-22.245 22.245-22.245zm64.217 254.889-27.966-108.715c.007.001.015.002.022.004 12.06 2.56 17.123 1.495 56.443 1.737l5.935 37.091c.655 4.09 4.499 6.876 8.591 6.221 3.579-.573 6.158-3.589 6.309-7.074.06-1.392.117.106-5.644-36.237h61.999c1.859 22.902 11.481 141.419 12.633 155.61h-49.733l-14.543-90.889c-.654-4.09-4.497-6.877-8.591-6.221-4.089.655-6.875 4.5-6.221 8.591l14.052 87.823c-25.474-3.748-46.731-22.458-53.286-47.941zm175.705 48.635h-42.333l-12.633-155.61h67.598c-1.281 15.776-11.352 139.839-12.632 155.61zm161.338-157.353-27.967 108.717c-6.555 25.483-27.812 44.193-53.287 47.939l7.126-44.538c.654-4.09-2.131-7.937-6.221-8.591-4.085-.654-7.936 2.131-8.591 6.221l-7.617 47.604h-49.733c1.281-15.775 11.352-139.839 12.632-155.61h61.999l-12.481 78.005c-.654 4.09 2.131 7.937 6.221 8.591 4.089.656 7.937-2.13 8.591-6.221l12.861-80.375c38.779-.034 45.602.579 56.467-1.742zm58.495-123.926c0 12.336-10.067 22.245-22.245 22.245-12.266 0-22.245-9.979-22.245-22.245s9.979-22.245 22.244-22.245h.014c12.492.001 22.232 10.207 22.232 22.245zm-58.333-100.121c0 12.254-9.983 22.245-22.245 22.245-12.265 0-22.245-9.979-22.245-22.245 0-12.272 9.991-22.245 22.245-22.245 12.266 0 22.245 9.979 22.245 22.245zm-123.178-81.734c12.179 0 21.958 9.79 22.229 21.722l.012.415c.083 12.277-9.946 22.353-22.241 22.353-12.266 0-22.245-9.978-22.245-22.245.001-12.243 9.968-22.245 22.245-22.245zm-118.979 0c12.236 0 22.245 9.971 22.245 22.245 0 12.36-10.09 22.245-22.245 22.245-12.073 0-22.463-9.79-22.23-22.83.313-11.997 10.161-21.66 22.23-21.66zm-36.327 30.476c3.769 16.622 18.624 28.966 36.255 29.011.024 0 .048.001.073.001 20.523 0 37.245-16.701 37.245-37.245 0-3.471-.534-7.362-1.674-11.054 15.085-4.638 31.888-4.9 47.835.008-.966 3.381-1.672 6.652-1.672 11.045 0 20.327 16.47 37.243 37.311 37.243 17.293-.029 32.44-12.111 36.257-28.988 15.147 3.803 29.101 12.027 39.794 23.456-7.944 7.08-12.429 17.246-12.429 27.779 0 20.537 16.708 37.245 37.245 37.245 10.419 0 20.637-4.385 27.814-12.466 11.105 10.602 18.92 24.048 22.632 38.938-16.876 3.642-29.285 18.651-29.355 36.259 0 .048-.004.096-.004.145 0 20.537 16.708 37.245 37.245 37.245 3.533 0 6.377-.476 9.674-1.28 6.072 33.119-16.23 67.732-51.606 73.76-8.074 1.388 4.931.944-342.65.944-40.993 0-69.495-37.517-62.528-74.685 3.148.841 6.531 1.261 9.6 1.261 20.658 0 37.245-16.837 37.245-37.245 0-17.477-12.306-32.736-29.407-36.415 3.713-14.901 11.535-28.357 22.648-38.963 7.033 7.941 17.178 12.501 27.847 12.501 20.537 0 37.245-16.708 37.245-37.245 0-10.378-4.362-20.61-12.463-27.811 10.699-11.426 24.663-19.648 39.823-23.444zm-64.605 29.013c12.233 0 22.245 9.962 22.245 22.245 0 12.265-9.979 22.245-22.245 22.245-12.344 0-22.245-10.067-22.245-22.245 0-12.266 9.979-22.245 22.245-22.245z"/></g></g></svg>