<svg id="Capa_1" enable-background="new 0 0 512 512" height="512" viewBox="0 0 512 512" width="512" xmlns="http://www.w3.org/2000/svg"><g><g><g fill="#dcdcdc"><path d="m242.628 11.865c-13.233-8.301-30.68-4.413-39.177 8.696l-8.116 12.521c-8.69 13.406-4.697 31.296 8.826 39.802 9.008 5.667 18.175 11.716 27.448 18.126l39.238-60.535c-9.538-6.592-18.963-12.804-28.219-18.61z"/><path d="m500.135 269.372c-5.806-9.256-12.018-18.681-18.611-28.219l-60.535 39.238c6.41 9.273 12.459 18.439 18.126 27.447 8.507 13.523 26.396 17.516 39.802 8.826l12.521-8.116c13.11-8.496 16.998-25.943 8.697-39.176z"/><path d="m151.011 103.482c-13.233-8.301-30.68-4.413-39.177 8.696l-8.116 12.521c-8.689 13.406-4.697 31.296 8.826 39.802 9.008 5.667 18.175 11.716 27.447 18.126l39.238-60.535c-9.537-6.592-18.962-12.804-28.218-18.61z"/><path d="m408.518 360.989c-5.806-9.256-12.018-18.681-18.611-28.219l-60.535 39.238c6.41 9.273 12.459 18.439 18.126 27.448 8.507 13.523 26.396 17.516 39.802 8.826l12.521-8.116c13.11-8.497 16.998-25.944 8.697-39.177z"/></g><path d="m492.481 214.516c-11.595-35.026-39.169-77.502-78.333-116.664-39.163-39.163-81.639-66.737-116.664-78.332-11.666-3.862-24.435-1.837-34.354 5.417-13.762 10.063-33.079 28.16-45.212 56.468-8.063 18.814.662 40.631 19.355 48.97 26.348 11.754 56.125 32.632 83.922 60.43 27.798 27.798 48.677 57.574 60.431 83.923 8.339 18.693 30.156 27.418 48.969 19.355 28.308-12.133 46.405-31.45 56.469-45.212 7.253-9.92 9.279-22.69 5.417-34.355z" fill="#e27858"/><path d="m400.864 306.133c-11.595-35.026-39.169-77.502-78.332-116.664-39.163-39.163-81.639-66.737-116.664-78.332-11.666-3.862-24.435-1.837-34.354 5.417-13.762 10.064-33.08 28.161-45.212 56.469-8.063 18.814.662 40.631 19.355 48.97 26.348 11.754 56.125 32.632 83.922 60.43 27.798 27.798 48.676 57.574 60.43 83.923 8.339 18.693 30.156 27.418 48.97 19.355 28.308-12.133 46.405-31.45 56.469-45.212 7.253-9.921 9.277-22.691 5.416-34.356z" fill="#dc6742"/><g><g><g><ellipse cx="198.584" cy="189.876" fill="#ff8997" rx="25.669" ry="32.233" transform="matrix(.707 -.707 .707 .707 -76.099 196.035)"/></g><g><ellipse cx="322.124" cy="313.416" fill="#ff8997" rx="25.669" ry="32.233" transform="matrix(.707 -.707 .707 .707 -127.271 319.572)"/></g></g></g><path d="m59.394 195.098c-13.233-8.301-30.68-4.413-39.177 8.696l-8.116 12.521c-8.689 13.406-4.697 31.296 8.826 39.802 9.008 5.667 18.175 11.716 27.447 18.126l39.238-60.535c-9.536-6.592-18.962-12.803-28.218-18.61z" fill="#dcdcdc"/><path d="m316.902 452.606c-5.806-9.256-12.018-18.681-18.611-28.219l-60.535 39.238c6.41 9.273 12.459 18.439 18.126 27.448 8.507 13.523 26.396 17.516 39.803 8.826l12.521-8.116c13.108-8.497 16.997-25.944 8.696-39.177z" fill="#dcdcdc"/><path d="m180.947 148.81c12.131-12.131 24.947-23.012 38.239-32.644-4.54-1.915-8.986-3.595-13.319-5.029-11.666-3.862-24.435-1.836-34.354 5.417-13.762 10.063-33.08 28.161-45.212 56.469-5.736 13.384-2.97 28.284 5.832 38.774 13.013-22.201 29.304-43.478 48.814-62.987z" fill="#ca5935"/><path d="m309.247 397.749c-11.595-35.026-39.169-77.502-78.332-116.664-39.163-39.163-81.639-66.737-116.664-78.332-11.666-3.862-24.436-1.837-34.354 5.417-13.763 10.064-33.08 28.161-45.212 56.469-8.063 18.814.662 40.631 19.354 48.97 26.349 11.754 56.125 32.632 83.923 60.43s48.676 57.574 60.43 83.923c8.339 18.693 30.156 27.418 48.97 19.355 28.308-12.133 46.405-31.45 56.469-45.212 7.253-9.92 9.278-22.69 5.416-34.356z" fill="#e27858"/><path d="m133.066 210.203c-6.457-2.944-12.75-5.442-18.815-7.45-11.666-3.862-24.436-1.836-34.354 5.417-13.763 10.063-33.08 28.161-45.212 56.469-8.063 18.813.662 40.63 19.354 48.97 12.834 5.725 26.482 13.63 40.318 23.43 1.366-42.03 14.457-86.039 38.709-126.836z" fill="#dc6742"/><path d="m373.49 62.112c-26.518-20.317-52.885-34.938-76.006-42.592-11.666-3.862-24.435-1.837-34.354 5.417-13.762 10.063-33.079 28.16-45.212 56.468-4.903 11.44-3.59 23.985 2.388 33.94 48.013-34.466 102.2-52.549 153.184-53.233z" fill="#dc6742"/></g><g><path d="m234.669 190.956 9.318-9.318c2.929-2.929 2.929-7.678 0-10.608-2.929-2.929-7.678-2.929-10.607 0l-9.318 9.318c-2.929 2.929-2.929 7.678 0 10.607 2.928 2.929 7.678 2.93 10.607.001z"/><path d="m331.651 287.938 9.318-9.318c2.929-2.929 2.929-7.678 0-10.608-2.929-2.929-7.678-2.929-10.607 0l-9.318 9.318c-2.929 2.929-2.929 7.678 0 10.608 2.929 2.929 7.678 2.929 10.607 0z"/><path d="m291.432 254.133c4.133-.284 7.253-3.864 6.969-7.997s-3.865-7.252-7.997-6.969c-9.987.688-18.258-7.584-17.572-17.572.284-4.133-2.836-7.713-6.969-7.997-4.137-.284-7.713 2.836-7.997 6.969-1.309 19.056 14.503 34.879 33.566 33.566z"/><path d="m50.996 320.434c12.268 5.472 25.149 12.933 38.286 22.175 3.387 2.384 8.067 1.569 10.451-1.819 2.383-3.388 1.569-8.067-1.819-10.451-13.927-9.797-27.656-17.739-40.806-23.605-14.87-6.634-21.831-24.045-15.618-38.917 4.003-7.572 13.102-31.892 42.85-53.625 7.945-5.811 18.252-7.437 27.572-4.351 73.955 24.484 165.709 116.124 190.249 190.249 3.086 9.32 1.459 19.628-4.351 27.573-14.15 19.363-32.948 33.986-53.335 42.732-16.837 6.608-33.058-1.717-39.207-15.501-17.39-38.982-50.205-77.587-82.929-105.555-3.148-2.692-7.883-2.321-10.575.827-2.692 3.149-2.321 7.884.828 10.576 31.029 26.523 62.501 63.332 78.976 100.264 9 20.174 31.433 30.797 52.429 25.362 1.888 2.907 3.757 5.814 5.567 8.691 10.743 17.079 33.304 22.1 50.234 11.126l12.522-8.117c16.463-10.671 21.385-32.858 10.971-49.46-3.36-5.356-6.918-10.853-10.597-16.389 6.335-11.102 7.764-24.483 3.739-36.74 6.456 1.171 12.944.903 19.192-.73 1.89 2.911 3.759 5.817 5.563 8.685 5.203 8.271 13.315 13.983 22.842 16.084 9.474 2.09 19.209.347 27.392-4.957l12.522-8.117c16.463-10.671 21.384-32.859 10.971-49.46-3.358-5.353-6.916-10.85-10.597-16.389 6.335-11.102 7.764-24.483 3.739-36.741 6.442 1.17 12.932.906 19.192-.729 1.89 2.911 3.759 5.817 5.563 8.685 10.744 17.08 33.3 22.103 50.234 11.127l12.522-8.117c16.462-10.671 21.384-32.859 10.971-49.46-3.361-5.358-6.919-10.855-10.596-16.389 6.353-11.132 7.775-24.558 3.709-36.843-6.072-18.339-16.018-37.975-29.562-58.363-2.293-3.45-6.949-4.389-10.398-2.097-3.45 2.292-4.389 6.948-2.097 10.398 12.626 19.004 22.244 37.945 27.816 54.776 3.085 9.32 1.459 19.628-4.351 27.573-25.525 34.853-61.458 46.118-53.635 42.852-8.682 3.624-18.455 2.918-26.585-1.859-30.39-67.701-105.187-143.257-174.244-174.244-4.616-7.858-5.595-16.913-1.728-26.905 9.163-21.348 24.248-39.81 42.721-53.313 7.945-5.81 18.251-7.437 27.573-4.351 35.346 11.701 76.798 39.592 113.727 76.522 11.199 11.198 21.699 22.955 31.21 34.946 2.574 3.246 7.293 3.79 10.537 1.215 3.246-2.574 3.79-7.292 1.215-10.538-9.867-12.438-20.753-24.628-32.356-36.231-38.527-38.528-82.128-67.743-119.62-80.155-12.283-4.067-25.71-2.644-36.843 3.708-5.538-3.681-11.035-7.238-16.39-10.597-16.6-10.413-38.789-5.492-49.46 10.971l-8.117 12.522c-10.951 16.893-5.988 39.468 11.127 50.235 2.873 1.807 5.785 3.679 8.7 5.572-1.65 6.318-1.881 12.852-.73 19.187-12.262-4.032-25.649-2.603-36.755 3.735-5.54-3.682-11.037-7.24-16.39-10.598-16.6-10.413-38.788-5.492-49.46 10.971l-8.117 12.522c-10.974 16.931-5.953 39.49 11.127 50.235 2.875 1.809 5.786 3.68 8.7 5.572-1.65 6.317-1.881 12.851-.73 19.186-12.26-4.031-25.648-2.603-36.755 3.735-5.534-3.679-11.031-7.236-16.389-10.597-16.601-10.414-38.789-5.492-49.46 10.971l-8.117 12.522c-10.974 16.93-5.953 39.489 11.127 50.234 2.869 1.805 5.777 3.675 8.69 5.565-5.397 20.837 5.051 43.367 25.363 52.429zm436.411-18.204-12.522 8.117c-9.927 6.435-23.105 3.441-29.377-6.527-1.351-2.147-2.731-4.315-4.131-6.49 8.387-4.221 16.282-9.252 23.486-14.862 8.292-6.463 16.189-14.221 21.569-20.677 2.548 3.894 5.022 7.752 7.398 11.539 6.083 9.697 3.202 22.662-6.423 28.9zm-183.248 183.248-12.522 8.117c-9.937 6.441-23.114 3.43-29.377-6.526-1.353-2.151-2.733-4.318-4.131-6.49 28.3-13.951 43.887-34.519 45.056-35.54 2.549 3.895 5.022 7.754 7.398 11.54 6.082 9.697 3.201 22.661-6.424 28.899zm91.624-91.624-12.522 8.117c-9.934 6.44-23.112 3.432-29.377-6.527-1.351-2.147-2.731-4.315-4.131-6.49 28.492-14.246 44.261-34.913 45.055-35.54 2.55 3.896 5.023 7.754 7.398 11.539 6.083 9.698 3.202 22.663-6.423 28.901zm-194.13-356.739 8.117-12.522c6.262-9.66 19.238-12.484 28.9-6.422 3.785 2.374 7.644 4.848 11.54 7.398-3.072 3.184-21.206 16.786-35.54 45.055-2.175-1.4-4.343-2.78-6.49-4.131-9.956-6.262-12.968-19.441-6.527-29.378zm1.883 81.101c73.155 24.215 165.48 115.438 190.248 190.249 2.988 9.026 1.807 19.247-4.903 28.309-6.788 9.144-14.811 17.465-23.574 24.461-15.303 12.244-29.97 17.847-29.508 17.654-8.681 3.625-18.455 2.919-26.585-1.859-30.966-68.965-106.323-143.763-174.244-174.244-8.103-13.79-1.827-26.732-1.847-26.61 9.036-21.339 24.279-40.043 42.839-53.609 7.946-5.809 18.254-7.436 27.574-4.351zm-93.507 10.523 8.117-12.522c6.264-9.663 19.238-12.483 28.901-6.423 3.784 2.374 7.643 4.848 11.539 7.398-12.693 10.385-26.527 27.03-35.539 45.055-2.174-1.4-4.342-2.78-6.49-4.131-9.975-6.275-12.96-19.456-6.528-29.377zm-91.624 91.624 8.117-12.522c6.263-9.661 19.237-12.484 28.901-6.422 3.787 2.376 7.646 4.849 11.539 7.397-.008.007-.016.015-.024.021-15.221 12.966-27.339 28.682-35.516 45.034-2.175-1.401-4.343-2.78-6.49-4.132-9.977-6.274-12.957-19.457-6.527-29.376z"/></g></g></svg>