<svg id="Capa_1" enable-background="new 0 0 512 512" height="512" viewBox="0 0 512 512" width="512" xmlns="http://www.w3.org/2000/svg"><g><g><path d="m448.167 154.029 51.509 280.035c6.741 36.648-21.399 70.436-58.662 70.436h-138.319c-37.263 0-65.403-33.788-58.662-70.436l51.509-280.035z" fill="#f9ed80"/><path d="m407.318 30.738c-2.476-13.463-14.213-23.238-27.902-23.238h-15.123c-13.689 0-25.425 9.775-27.902 23.238l-23.351 126.948h117.627z" fill="#f9ed80"/><path d="m216.457 154.029 51.509 280.035c6.741 36.648-21.399 70.436-58.662 70.436h-138.318c-37.263 0-65.403-33.788-58.662-70.436l51.509-280.035z" fill="#ff6f7f"/><path d="m175.608 30.738c-2.476-13.463-14.213-23.238-27.901-23.238h-15.123c-13.689 0-25.425 9.775-27.902 23.238l-23.35 126.948h117.627z" fill="#ff6f7f"/><path d="m186.484 89.867-10.876-59.129c-2.476-13.463-14.213-23.238-27.901-23.238h-15.123c-13.689 0-25.425 9.775-27.902 23.238l-23.35 126.948h33.967c19.69-26.336 43.771-49.29 71.185-67.819z" fill="#fc5c70"/><path d="m189.417 104.091h-98.543c-23.96 0-43.383 19.423-43.383 43.383 0 13.147 10.658 23.805 23.805 23.805h137.699c13.147 0 23.806-10.658 23.806-23.805-.001-23.959-19.424-43.383-43.384-43.383z" fill="#fc5c70"/><path d="m421.127 104.091h-98.544c-23.96 0-43.383 19.423-43.383 43.383 0 13.147 10.658 23.805 23.805 23.805h137.699c13.147 0 23.806-10.658 23.806-23.805 0-23.959-19.424-43.383-43.383-43.383z" fill="#ffca8a"/><path d="m57.849 330.164c0-66.192 22.444-127.217 60.229-176.135h-54.245l-51.509 280.035c-6.741 36.648 21.399 70.436 58.662 70.436h45.691c-36.946-48.61-58.828-108.958-58.828-174.336z" fill="#fc5c70"/><path d="m105.725 171.28c16.84-25.423 37.601-48.095 61.443-67.189h-76.294c-23.96 0-43.383 19.423-43.383 43.383 0 13.147 10.658 23.805 23.805 23.805h34.429z" fill="#f8485e"/></g><g><path d="m79.308 358.654v-13.132c0-4.142-3.358-7.5-7.5-7.5s-7.5 3.358-7.5 7.5v13.132c0 4.142 3.358 7.5 7.5 7.5s7.5-3.358 7.5-7.5z"/><path d="m215.984 358.654v-13.132c0-4.142-3.358-7.5-7.5-7.5s-7.5 3.358-7.5 7.5v13.132c0 4.142 3.358 7.5 7.5 7.5s7.5-3.358 7.5-7.5z"/><path d="m163.817 363.19c2.721-3.123 2.396-7.86-.727-10.582-3.123-2.721-7.86-2.396-10.582.727-6.548 7.514-18.184 7.506-24.725 0-2.722-3.123-7.459-3.447-10.582-.727-3.123 2.722-3.448 7.459-.727 10.582 12.527 14.374 34.829 14.359 47.343 0z"/><path d="m296.017 345.522v13.132c0 4.142 3.358 7.5 7.5 7.5s7.5-3.358 7.5-7.5v-13.132c0-4.142-3.358-7.5-7.5-7.5s-7.5 3.358-7.5 7.5z"/><path d="m432.693 345.522v13.132c0 4.142 3.358 7.5 7.5 7.5s7.5-3.358 7.5-7.5v-13.132c0-4.142-3.358-7.5-7.5-7.5s-7.5 3.358-7.5 7.5z"/><path d="m384.218 353.335c-6.548 7.514-18.184 7.506-24.725 0-2.722-3.123-7.459-3.447-10.582-.727-3.123 2.722-3.448 7.459-.727 10.582 12.527 14.374 34.829 14.359 47.342 0 2.721-3.123 2.396-7.86-.727-10.582-3.122-2.72-7.86-2.396-10.581.727z"/><path d="m53.035 254.201c.749-4.074-1.946-7.984-6.02-8.733-4.077-.747-7.984 1.946-8.733 6.02l-33.333 181.219c-7.596 41.296 24.133 79.293 66.038 79.293h138.318c17.587 0 34.25-6.823 46.717-18.921 12.458 12.104 29.037 18.921 46.674 18.921h138.318c41.987 0 73.618-38.079 66.038-79.293l-25.709-139.769c-.749-4.073-4.656-6.767-8.733-6.02-4.074.75-6.769 4.66-6.02 8.733l25.71 139.77c5.899 32.069-18.742 61.579-51.285 61.579h-138.319c-14.102 0-27.346-5.601-37.112-15.536 6.339-9.726 9.993-20.85 10.717-32.326.725-11.306-.091-11.511-12.676-80.13l35.044-190.524c1.771.244 141.958.607 146.369 0l16.033 87.168c.749 4.074 4.661 6.767 8.733 6.02 4.074-.75 6.769-4.66 6.02-8.733l-16.6-90.245c7.746-5.704 12.784-14.883 12.784-25.219 0-26.027-19.646-47.539-44.885-50.518l-12.43-67.575c-3.129-17.026-17.966-29.382-35.276-29.382h-15.123c-17.31 0-32.146 12.356-35.278 29.38l-12.43 67.576c-40.737 4.808-59.251 55.743-32.102 75.736l-28.484 154.856-28.484-154.855c7.746-5.704 12.784-14.883 12.784-25.219 0-26.027-19.646-47.539-44.885-50.518l-12.43-67.575c-3.131-17.025-17.967-29.381-35.277-29.381h-15.123c-17.31 0-32.146 12.356-35.278 29.38l-12.43 67.576c-25.24 2.979-44.886 24.491-44.886 50.518 0 10.336 5.038 19.515 12.784 25.219l-8.975 48.794c-.749 4.074 1.946 7.984 6.02 8.733 4.076.747 7.984-1.946 8.733-6.02l8.409-45.717c3.683.513 143.799.353 146.368 0 .8 4.341 47.513 257.455 47.895 261.694 2.741 30.202-21.019 56.822-51.92 56.822h-138.318c-32.607 0-57.173-29.572-51.285-61.579zm290.734-222.107c1.821-9.905 10.454-17.094 20.525-17.094h15.123c10.071 0 18.704 7.189 20.525 17.094l11.864 64.497h-79.9zm-21.185 79.497h.316 97.911.316c19.786 0 35.883 16.097 35.883 35.883 0 8.276-6.34 16.008-16.306 16.306-149.667-.037-139.723.636-144.336-1.427-5.689-2.548-9.668-8.253-9.668-14.879 0-19.786 16.097-35.883 35.884-35.883zm-210.525-79.497c1.822-9.905 10.454-17.094 20.525-17.094h15.123c10.071 0 18.704 7.189 20.525 17.094l11.864 64.497h-79.9zm-47.402 130.259c-5.688-2.548-9.667-8.252-9.667-14.878 0-19.786 16.097-35.883 35.883-35.883h.316 97.911.316c19.786 0 35.883 16.097 35.883 35.883 0 9.067-7.423 16.306-16.306 16.306-144.519-.037-139.724.637-144.336-1.428z"/></g></g></svg>