<svg id="Capa_1" enable-background="new 0 0 512 512" height="512" viewBox="0 0 512 512" width="512" xmlns="http://www.w3.org/2000/svg"><g><g><path d="m256 22.836c-131.596 0-238.276 106.68-238.276 238.276s106.68 238.276 238.276 238.276 238.276-106.68 238.276-238.276-106.68-238.276-238.276-238.276zm0 322.323c-46.418 0-84.047-37.629-84.047-84.047s37.629-84.047 84.047-84.047 84.047 37.629 84.047 84.047-37.629 84.047-84.047 84.047z" fill="#ffca8a"/><path d="m59.256 237.353c0-64.703 22.556-124.268 60.413-171.667-61.627 43.071-101.945 114.535-101.945 195.426 0 127.849 100.694 232.169 227.1 238.007-108.455-40.017-185.568-142.112-185.568-261.766z" fill="#ffbe73"/><path d="m431.71 85.402c-46.932-46.942-109.338-72.79-175.71-72.79s-128.778 25.848-175.71 72.79c-46.942 46.932-72.79 109.338-72.79 175.71 0 .988.006 1.976.017 2.962.163 14.078 7.8 27.005 20.097 33.861l6.744 3.76c11.853 6.608 26.282 6.608 38.135 0l6.411-3.574c11.853-6.608 26.282-6.608 38.135 0l6.411 3.574c11.853 6.608 26.279 6.61 38.132.002.221-.123.443-.247.665-.371 12.977-7.235 20.883-21.199 20.043-36.032-.078-1.384-.118-2.778-.118-4.182 0-41.901 35.089-75.762 77.426-73.741 37.026 1.768 67.293 31.254 70.024 68.222.228 3.087.263 6.137.116 9.139-.736 15.043 6.861 29.262 20.016 36.595.221.124.443.247.663.37 11.853 6.608 26.279 6.607 38.132-.002l6.411-3.574c11.853-6.608 26.282-6.608 38.135 0l6.411 3.574c11.853 6.608 26.282 6.608 38.135 0l6.744-3.76c12.297-6.856 19.934-19.784 20.097-33.861.011-.987.017-1.974.017-2.962.001-66.372-25.847-128.778-72.789-175.71z" fill="#e27858"/><g><g><g><ellipse cx="155.561" cy="409.687" fill="#ff8997" rx="29.513" ry="37.06" transform="matrix(.002 -1 1 .002 -254.466 564.35)"/></g><g><ellipse cx="356.439" cy="410.127" fill="#ff8997" rx="29.513" ry="37.06" transform="matrix(.002 -1 1 .002 -54.467 765.667)"/></g></g></g><g><path d="m77.059 243.896c-6.985-6.985-6.985-18.309 0-25.295l22.434-22.434c6.985-6.985 18.309-6.985 25.295 0 6.985 6.985 6.985 18.309 0 25.295l-22.434 22.434c-6.984 6.984-18.309 6.985-25.295 0z" fill="#f9ed80"/></g><g><path d="m434.941 243.896c6.985-6.985 6.985-18.309 0-25.295l-22.434-22.434c-6.985-6.985-18.309-6.985-25.295 0-6.985 6.985-6.985 18.309 0 25.295l22.434 22.434c6.984 6.984 18.309 6.985 25.295 0z" fill="#ffb3dd"/></g><g><path d="m232.136 102.77c-6.985-6.985-6.985-18.309 0-25.295l22.434-22.434c6.985-6.985 18.309-6.985 25.295 0 6.985 6.985 6.985 18.309 0 25.295l-22.435 22.434c-6.984 6.984-18.308 6.985-25.294 0z" fill="#9ae0eb"/></g><g><path d="m171.709 151.663c-6.985 6.985-18.309 6.985-25.295 0l-22.434-22.434c-6.985-6.985-6.985-18.309 0-25.295 6.985-6.985 18.309-6.985 25.295 0l22.434 22.434c6.985 6.985 6.985 18.309 0 25.295z" fill="#60d9a7"/></g><g><path d="m340.291 151.663c6.985 6.985 18.309 6.985 25.295 0l22.434-22.434c6.985-6.985 6.985-18.309 0-25.295-6.985-6.985-18.309-6.985-25.295 0l-22.434 22.434c-6.985 6.985-6.985 18.309 0 25.295z" fill="#f9ed80"/></g><path d="m59.256 237.353c0-77.296 32.176-147.271 84.194-197.917-23.044 11.731-44.347 27.149-63.16 45.966-46.942 46.932-72.79 109.339-72.79 175.71 0 .988.006 1.976.017 2.962.163 14.078 7.8 27.005 20.097 33.861l6.744 3.76c10.228 5.703 22.372 6.472 33.126 2.333-5.363-21.37-8.228-43.695-8.228-66.675z" fill="#dc6742"/></g><g><path d="m170.016 372.661v15.061c0 4.142 3.358 7.5 7.5 7.5s7.5-3.358 7.5-7.5v-15.061c0-4.142-3.358-7.5-7.5-7.5s-7.5 3.358-7.5 7.5z"/><path d="m326.767 372.661v15.061c0 4.142 3.358 7.5 7.5 7.5s7.5-3.358 7.5-7.5v-15.061c0-4.142-3.358-7.5-7.5-7.5s-7.5 3.358-7.5 7.5z"/><path d="m284.905 396.701c0 5.868-4.774 10.643-10.643 10.643s-10.642-4.774-10.642-10.643c0-4.142-3.358-7.5-7.5-7.5s-7.5 3.358-7.5 7.5c0 5.868-4.774 10.643-10.643 10.643s-10.643-4.774-10.643-10.643c0-4.142-3.358-7.5-7.5-7.5s-7.5 3.358-7.5 7.5c0 14.14 11.503 25.643 25.643 25.643 7.079 0 13.498-2.884 18.142-7.539 4.645 4.655 11.063 7.539 18.142 7.539 14.139 0 25.643-11.503 25.643-25.643 0-4.142-3.358-7.5-7.5-7.5s-7.499 3.358-7.499 7.5z"/><path d="m107.657 249.216 22.434-22.434c9.898-9.898 9.898-26.003 0-35.901-9.898-9.897-26.003-9.897-35.901 0l-22.434 22.434c-9.898 9.898-9.898 26.003 0 35.901 9.897 9.895 26.003 9.899 35.901 0zm-25.295-25.295 22.434-22.434c4.05-4.05 10.639-4.048 14.688 0 4.049 4.05 4.049 10.639 0 14.688l-22.434 22.434c-4.048 4.049-10.637 4.05-14.688 0-4.049-4.05-4.049-10.638 0-14.688z"/><path d="m381.909 226.782 22.434 22.434c9.898 9.898 26.002 9.898 35.901 0 9.898-9.898 9.898-26.003 0-35.901l-22.434-22.434c-9.897-9.897-26.002-9.897-35.901 0-9.898 9.898-9.898 26.003 0 35.901zm17.95-28.331c2.659 0 5.319 1.012 7.344 3.037l22.434 22.434c4.049 4.049 4.049 10.638 0 14.688-4.05 4.05-10.639 4.049-14.688 0l-22.434-22.434c-6.549-6.55-1.846-17.725 7.344-17.725z"/><path d="m262.733 108.09 22.435-22.434c9.896-9.898 9.896-26.002-.001-35.901-9.898-9.897-26.003-9.897-35.901 0l-22.435 22.435c-9.896 9.897-9.896 26.003 0 35.9 0 0 0 0 .001.001 9.898 9.895 26.004 9.897 35.901-.001zm-25.295-25.295 22.434-22.434c4.049-4.049 10.638-4.049 14.688 0 4.049 4.05 4.049 10.639 0 14.688l-22.434 22.434c-4.05 4.05-10.638 4.049-14.689 0-4.047-4.05-4.047-10.638.001-14.688z"/><path d="m177.012 156.984c0-.001.001-.001 0 0 9.897-9.899 9.897-26.004 0-35.901l-22.434-22.434c-9.897-9.896-26.001-9.898-35.901 0-9.897 9.898-9.897 26.004 0 35.901l22.434 22.434c9.897 9.896 26.003 9.898 35.901 0zm-40.384-50.766c2.659 0 5.319 1.012 7.344 3.037l22.434 22.434c4.049 4.049 4.049 10.639 0 14.688-4.05 4.05-10.639 4.049-14.688 0l-22.434-22.434c-6.55-6.55-1.847-17.725 7.344-17.725z"/><path d="m357.421 98.648-22.434 22.434c-9.897 9.897-9.897 26.002 0 35.901 9.896 9.896 26.002 9.898 35.901 0l22.434-22.434c9.897-9.897 9.898-26.003 0-35.901-9.898-9.897-26.003-9.898-35.901 0zm25.295 25.295-22.434 22.434c-4.049 4.049-10.638 4.05-14.688 0s-4.05-10.639 0-14.688l22.434-22.434c4.049-4.049 10.638-4.049 14.688 0 4.049 4.05 4.049 10.638 0 14.688z"/><path d="m169.933 19.898c-3.902 1.389-5.939 5.679-4.55 9.581 1.39 3.902 5.679 5.94 9.581 4.55 156.88-55.859 323.916 61.021 322.02 229.976-.132 11.396-6.418 21.917-16.25 27.397-3.788 1.51-14.152 10.916-30.043 6.788-5.834-1.516-8.916-3.977-13.943-6.602-14.226-7.932-31.212-7.932-45.44 0l-6.411 3.574c-21.737 12.117-48.919-4.508-47.668-30.046 2.21-45.223-32.772-83.094-77.273-85.218-48.178-2.298-87.89 37.535-85.153 85.838 1.198 21.15-19.556 37.812-40.169 32.454-5.834-1.517-8.916-3.977-13.942-6.602-14.226-7.932-31.212-7.932-45.44 0-5.046 2.635-8.109 5.085-13.943 6.602-15.928 4.134-26.285-5.29-30.043-6.788-9.646-5.382-16.115-15.791-16.25-27.396-1.076-96.018 53.448-177.603 131.086-217.479 3.685-1.893 5.138-6.414 3.245-10.099-1.892-3.684-6.413-5.138-10.098-3.245-82.395 42.318-140.408 128.94-139.231 230.996.137 11.841 4.78 23.02 12.631 31.435 8.112 57.719 36.637 110.775 80.538 149.628 44.93 39.765 102.752 61.664 162.813 61.664 42.711 0 84.792-11.139 121.694-32.213 3.597-2.054 4.848-6.635 2.793-10.232-2.054-3.597-6.634-4.847-10.232-2.793-34.641 19.782-74.149 30.238-114.256 30.238-56.396 0-110.687-20.562-152.873-57.896-37.565-33.246-63.152-77.556-73.162-126.158l.74.413c14.345 7.996 31.329 7.867 45.44 0 3.408-1.342 13.909-10.707 29.71-6.601 5.262 1.368 8.361 3.508 13.942 6.601 24.498 13.658 45.819-.295 46.103-.369 3.054-1.771 5.446-3.372 8.212-5.824 15.327 30.713 46.833 50.606 81.887 50.606 35.067 0 66.562-19.887 81.887-50.603 14.799 13.104 36.259 16.257 54.316 6.19 5.378-2.878 7.599-4.58 12.003-6.03 17.746-5.34 27.418 4.447 31.649 6.03 24.672 13.755 45.744-.303 46.191-.419-5.074 24.76-14.161 48.342-27.106 70.298-15.451 26.204-35.612 48.811-59.925 67.19-3.304 2.498-3.958 7.202-1.46 10.505 2.498 3.305 7.202 3.958 10.506 1.46 25.884-19.568 47.35-43.636 63.8-71.537 16.426-27.858 27.001-58.177 31.487-90.145 7.853-8.415 12.498-19.596 12.635-31.44.802-69.434-25.835-134.937-74.969-184.061-73.274-73.291-178.3-91.829-267.079-60.218zm86.067 317.778c-31.787 0-60.083-19.565-71.419-49.016 6.598-12.623 5.093-22.678 5.093-27.531 0-37.565 31.38-68.076 69.568-66.25 36.307 1.734 64.814 32.639 63.006 69.502-.423 8.649 1.438 16.961 5.187 24.238-11.328 29.478-39.621 49.057-71.435 49.057z"/></g></g></svg>