<svg id="Capa_1" enable-background="new 0 0 512 512" height="512" viewBox="0 0 512 512" width="512" xmlns="http://www.w3.org/2000/svg"><g><g><path d="m488.986 71.825c-9.326-9.326-21.266-14.433-33.461-15.35-.917-12.195-6.023-24.135-15.35-33.461-20.686-20.686-54.224-20.686-74.91 0-18.783 18.783-20.508 48.161-5.181 68.893l-78.36 78.36 60.009 60.009 78.36-78.36c20.733 15.327 50.11 13.602 68.893-5.181 20.685-20.685 20.686-54.224 0-74.91z" fill="#dcdcdc"/><path d="m371.23 185.352c-5.641-5.548-12.662-12.452-22.02-22.042l-.257-.263-.264-.257c-9.612-9.379-16.522-16.406-22.074-22.052-2.796-2.843-5.296-5.382-7.645-7.717l-37.247 37.247 60.009 60.009 37.248-37.247c-2.344-2.361-4.894-4.87-7.75-7.678z" fill="#cececc"/><path d="m372.898 232.485c-8.756-13.696-15.951-18.291-45.159-48.224-29.98-29.254-34.53-36.404-48.224-45.159-21.428-13.74-49.683-8.164-64.598 12.077-6.241 8.458-16.348 13.179-26.854 12.521l-15.351-.965c-12.566-.789-24.363 6.117-29.821 17.47l-6.593 13.688c-4.61 9.58-13.812 16.12-24.382 17.327l-15.22 1.735c-12.442 1.422-22.811 10.199-26.254 22.237l-4.226 14.79c-2.941 10.258-10.956 18.285-21.22 21.233-15.918 4.565-25.004 21.24-21.128 37.209 4.223 17.44-7.784 28.57-7.838 28.667-11.373 11.947-11.373 30.714 0 42.661l.143.156c12.34 12.961 7.627 28.646 7.63 28.784-3.9 16.055 5.51 32.338 21.363 36.988l.13.039c17.185 5.034 20.975 21.033 21.024 21.115 4.65 15.853 20.933 25.263 36.988 21.363l.163-.033c17.434-4.231 28.648 7.734 28.778 7.806 11.947 11.373 30.714 11.373 42.661 0l.248-.235c7.565-7.199 18.266-10.062 28.419-7.604 15.979 3.878 32.648-5.224 37.21-21.128 2.948-10.264 10.975-18.279 21.233-21.22l14.79-4.226c12.038-3.443 20.815-13.812 22.237-26.254l1.735-15.22c1.206-10.571 7.747-19.772 17.327-24.382l13.688-6.593c11.353-5.458 18.259-17.255 17.47-29.821l-.965-15.351c-.659-10.505 4.063-20.613 12.521-26.854 20.254-14.925 25.804-43.186 12.075-64.597z" fill="#e27858"/><g><g><g><ellipse cx="119.974" cy="416.187" fill="#fff" rx="37.383" ry="29.77" transform="matrix(.707 -.707 .707 .707 -259.15 206.735)"/></g><g><ellipse cx="263.256" cy="272.905" fill="#fff" rx="37.384" ry="29.77" transform="matrix(.707 -.707 .707 .707 -115.867 266.081)"/></g></g></g><path d="m32.789 438.631c13.275-62.226 49.271-128.259 105.422-184.411 48.956-48.956 105.425-82.592 160.332-99.207-7.16-7.151-11.834-11.312-19.028-15.911-21.428-13.74-49.683-8.164-64.598 12.077-6.241 8.458-16.349 13.179-26.854 12.521l-15.351-.965c-12.566-.789-24.363 6.117-29.821 17.47l-6.593 13.688c-4.61 9.58-13.812 16.12-24.382 17.327l-15.22 1.734c-12.442 1.421-22.811 10.199-26.254 22.237l-4.226 14.79c-2.941 10.258-10.955 18.285-21.22 21.233-15.918 4.565-25.004 21.24-21.128 37.209 4.223 17.439-7.784 28.569-7.839 28.667-11.373 11.947-11.373 30.715 0 42.661l.143.157c12.34 12.961 7.627 28.646 7.63 28.784-2.724 11.22 1.056 22.545 8.987 29.939z" fill="#dc6742"/></g><g><path d="m109.616 363.515c-2.928-2.929-7.677-2.929-10.605 0-2.929 2.928-2.929 7.677 0 10.605l10.805 10.805c2.928 2.929 7.677 2.93 10.605 0 2.929-2.928 2.929-7.677 0-10.605z"/><path d="m222.076 251.055c-2.928-2.928-7.677-2.928-10.605 0-2.929 2.928-2.929 7.677 0 10.605l10.805 10.805c2.928 2.929 7.676 2.929 10.605 0s2.929-7.677 0-10.606z"/><path d="m185.338 300.764c-4.132.284-7.252 3.863-6.968 7.995.843 12.292-9.327 22.5-21.654 21.654-4.138-.285-7.712 2.836-7.996 6.968s2.836 7.712 6.968 7.995c21.447 1.469 39.109-16.321 37.645-37.644-.283-4.131-3.859-7.253-7.995-6.968z"/><path d="m391.105 15.647c4.006-1.052 6.401-5.152 5.35-9.157-1.053-4.006-5.151-6.402-9.158-5.349-38.827 10.192-56.828 54.634-36.849 88.91l-52.8 52.8c-4.539-4.201-8.626-7.435-14.097-10.933-24.527-15.728-57.329-9.604-74.675 13.936-4.753 6.441-12.365 9.99-20.346 9.487l-15.35-.965c-15.7-.982-30.235 7.534-37.045 21.699l-6.593 13.689c-3.513 7.3-10.419 12.207-18.472 13.126l-15.221 1.735c-15.518 1.772-28.318 12.615-32.612 27.625l-4.223 14.782c-2.244 7.828-8.255 13.842-16.077 16.089-19.688 5.647-31.261 25.933-26.348 46.179 1.82 7.516.094 15.104-5.979 21.73l-.001-.001c-14.129 14.842-14.146 38.084-.05 52.945 5.983 6.506 7.791 13.993 5.943 22.151-4.788 19.945 6.862 40.072 26.515 45.836.197.116 12.035 2.692 16.115 16.081 5.635 19.215 25.353 31.513 46.112 26.506 7.552-1.834 15.306-.02 21.925 6.034 14.839 14.037 38.054 14.057 52.895-.071l.262-.248c5.742-5.465 13.772-7.614 21.478-5.748 20.362 4.943 40.569-6.771 46.183-26.344 2.247-7.824 8.262-13.834 16.083-16.077l14.79-4.226c15.007-4.293 25.851-17.093 27.624-32.613l1.734-15.217c.919-8.054 5.826-14.96 13.128-18.474l13.682-6.59c14.169-6.813 22.688-21.354 21.703-37.047l-.965-15.348c-.501-7.989 3.046-15.595 9.484-20.345 23.544-17.349 29.667-50.151 13.94-74.677-3.497-5.47-6.732-9.558-10.933-14.097l12.418-12.417c2.929-2.929 2.929-7.677 0-10.605-2.928-2.929-7.677-2.929-10.605 0l-12.339 12.338c-12.962-12.763-42.837-42.735-49.398-49.397l57.035-57.035c2.625-2.625 2.934-6.776.727-9.761-18.717-25.32-6.318-62.711 25.01-70.936zm-254.464 473.339c.314.226.55.432.693.567-.219-.202-.45-.392-.693-.567zm219.707-198.825c-10.559 7.791-16.372 20.26-15.551 33.356l.965 15.349c.601 9.568-4.593 18.436-13.238 22.592l-13.685 6.591c-11.971 5.761-20.017 17.083-21.524 30.289l-1.734 15.216c-1.082 9.466-7.695 17.275-16.845 19.892l-14.795 4.227c-12.83 3.678-22.689 13.531-26.373 26.359-3.365 11.732-16.03 18.865-28.233 15.905-21.763-5.27-35.378 9.571-35.6 9.694-8.937 8.508-23.146 8.763-32.381-.062-15.79-15.309-35.418-9.622-35.518-9.631-.099.02-.197.042-.295.065-12.184 2.959-24.489-4.15-28.018-16.185-3.494-11.914-12.691-22.269-26.061-26.185l-.178-.054c-11.451-3.358-19.184-15.016-16.162-28.114.042-.166.107-.517.143-.839-.038.344-.092.619-.134.801 5.335-21.398-9.518-35.544-9.565-35.644-9.28-10.15-8.175-23.918-.106-32.405 2.531-2.559 14.474-15.919 9.705-35.616-2.961-12.201 4.174-24.864 15.908-28.229 12.825-3.683 22.679-13.542 26.359-26.379l4.225-14.786c2.618-9.152 10.426-15.765 19.891-16.846l15.22-1.735c13.204-1.507 24.526-9.553 30.286-21.521l6.594-13.692c4.153-8.64 13.029-13.835 22.589-13.233l15.351.965c13.101.822 25.564-4.993 33.358-15.556 12.674-17.199 36.617-21.684 54.516-10.206 12.84 8.209 17.153 15.053 46.957 44.14 29.459 30.183 35.992 34.212 44.139 46.954.001.003.003.006.005.009 11.473 17.896 6.988 41.838-10.215 54.514z"/><path d="m396.29 182.319c1.919 0 3.839-.732 5.303-2.197l19.464-19.464c23.475 13.684 53.604 10.102 73.2-9.493 34.732-34.732 15.53-93.717-32.062-102.254-4.022-22.424-20.262-40.507-41.703-47.093-3.96-1.215-8.154 1.008-9.371 4.967-1.216 3.96 1.008 8.155 4.967 9.371 18.002 5.53 30.54 21.54 31.929 40.017.278 3.698 3.218 6.638 6.916 6.916 10.839.815 21.038 5.493 28.718 13.173 17.727 17.727 17.726 46.571 0 64.298-15.786 15.786-41.205 17.701-59.126 4.453-2.986-2.208-7.137-1.897-9.761.727l-23.777 23.777c-4.737 4.737-1.318 12.802 5.303 12.802z"/></g></g></svg>